# xmcd
#
# Track frame offsets: 
#        150
#        23775
#        61627
#        110855
#        152270
#        202842
#        237080
#        289010
#
# Disc length: 4183 seconds
#
# Revision: 5
# Processed by: cddbd v1.5.2PL0 Copyright (c) Steve Scherf et al.
# Submitted via: ExactAudioCopy v0.99pb4
#
DISCID=5c105508
DTITLE=Medeski Martin and Wood - Tonic
DYEAR=1999
DGENRE=Jazz
TTITLE0=Invocation
TTITLE1=Afrique
TTITLE2=Seven Deadlies
TTITLE3=Your Lady
TTITLE4=Rise Up
TTITLE5=Buster Rides Again
TTITLE6=Thaw
TTITLE7=Hey Joe
EXTD=YEAR: 1999
EXTT0=
EXTT1=
EXTT2=
EXTT3=
EXTT4=
EXTT5=
EXTT6=
EXTT7=
PLAYORDER=
